Coordinates
version=1
nRows=26
nColumns=24
inDegrees=yes

Units are S.I. units (second, meters, Newtons, ...)
Angles are in degrees.

endheader
time	pelvis_tilt	pelvis_list	pelvis_rotation	pelvis_tx	pelvis_ty	pelvis_tz	hip_flexion_r	hip_adduction_r	hip_rotation_r	knee_angle_r	ankle_angle_r	subtalar_angle_r	mtp_angle_r	hip_flexion_l	hip_adduction_l	hip_rotation_l	knee_angle_l	ankle_angle_l	subtalar_angle_l	mtp_angle_l	lumbar_extension	lumbar_bending	lumbar_rotation
      3.92500000	     -0.99560078	     -5.27878443	     -2.22107216	     -1.13019574	      0.93623393	      0.25280836	     12.78741706	     13.75229813	      5.14991654	    -23.36336328	     15.50296894	    -14.60244433	      0.00000000	     26.80223157	     -7.18130640	     -3.22647026	    -71.83210307	     10.34668397	    -14.32175892	      0.00000000	    -10.49554046	      4.86531601	     -5.71173222
      3.93000000	     -0.99473051	     -5.03461549	     -2.50144930	     -1.12341682	      0.93745835	      0.25359165	     11.97586502	     13.55314640	      5.60771437	    -22.80587104	     15.61771031	    -14.60239704	      0.00000000	     27.33057219	     -6.92681839	     -3.32437178	    -70.84806246	     10.79084282	    -13.79522978	      0.00000000	    -10.53283393	      4.49058995	     -5.43215182
      3.93500000	     -1.00123748	     -4.80019403	     -2.79173141	     -1.11665134	      0.93857757	      0.25437262	     11.18567269	     13.35630729	      6.06129028	    -22.26348143	     15.72924950	    -14.60508426	      0.00000000	     27.83256005	     -6.68494551	     -3.43333988	    -69.77720251	     11.19316268	    -13.35442261	      0.00000000	    -10.56271266	      4.12905484	     -5.14628580
      3.94000000	     -1.01543107	     -4.57856706	     -3.08857820	     -1.10989664	      0.93958414	      0.25514988	     10.41735103	     13.16457175	      6.50311711	    -21.73644607	     15.84115572	    -14.60887511	      0.00000000	     28.30968625	     -6.45817134	     -3.54789857	    -68.62294678	     11.55540544	    -12.99553175	      0.00000000	    -10.58445372	      3.78490551	     -4.85719657
      3.94500000	     -1.04266365	     -4.37071862	     -3.38746675	     -1.10314134	      0.94045464	      0.25593192	      9.68024303	     12.97882844	      6.90680301	    -21.22938457	     15.96689550	    -14.61438512	      0.00000000	     28.76871910	     -6.25127105	     -3.67163076	    -67.39002048	     11.89521551	    -12.71044295	      0.00000000	    -10.58656534	      3.45622378	     -4.57873188
      3.95000000	     -1.06573237	     -4.17963929	     -3.70102897	     -1.09639636	      0.94124275	      0.25670404	      8.94733362	     12.80337937	      7.33001073	    -20.73544807	     16.08058759	    -14.61308178	      0.00000000	     29.18792221	     -6.06116680	     -3.79338604	    -66.07808278	     12.18196911	    -12.48832810	      0.00000000	    -10.60021045	      3.15396314	     -4.27016990
      3.95500000	     -1.09790634	     -4.00960188	     -4.00339465	     -1.08967403	      0.94189910	      0.25746677	      8.24087444	     12.64192618	      7.72784937	    -20.26059088	     16.19843990	    -14.60787066	      0.00000000	     29.59157737	     -5.88711724	     -3.89482976	    -64.69673222	     12.44606634	    -12.31734744	      0.00000000	    -10.60673021	      2.87080445	     -3.96945346
      3.96000000	     -1.12739981	     -3.85577877	     -4.32103864	     -1.08293534	      0.94245694	      0.25820043	      7.54416378	     12.48904464	      8.11850853	    -19.80746272	     16.32303070	    -14.60885096	      0.00000000	     29.95332326	     -5.73229855	     -4.00148112	    -63.23985666	     12.68116787	    -12.18795518	      0.00000000	    -10.61198385	      2.62299725	     -3.65184484
      3.96500000	     -1.16333503	     -3.71894514	     -4.63433427	     -1.07619869	      0.94289071	      0.25894351	      6.86957854	     12.34867255	      8.48517516	    -19.37554277	     16.45430490	    -14.60973429	      0.00000000	     30.29242566	     -5.59701858	     -4.09950994	    -61.71638590	     12.90181864	    -12.08068443	      0.00000000	    -10.61043466	      2.38984666	     -3.34157622
      3.97000000	     -1.20338789	     -3.59869206	     -4.94808584	     -1.06946502	      0.94320837	      0.25966838	      6.21482509	     12.21928604	      8.83497735	    -18.96729549	     16.59364794	    -14.61034229	      0.00000000	     30.60511577	     -5.47885525	     -4.18967349	    -60.12859384	     13.10779411	    -11.98520449	      0.00000000	    -10.60622489	      2.18058881	     -3.02916986
      3.97500000	     -1.26598923	     -3.49019559	     -5.24908183	     -1.06269899	      0.94337810	      0.26040963	      5.60346011	     12.09982953	      9.13096489	    -18.58907135	     16.75295976	    -14.60585345	      0.00000000	     30.91151119	     -5.37760772	     -4.27111121	    -58.47944997	     13.31659689	    -11.87048424	      0.00000000	    -10.56397634	      1.98059937	     -2.76597304
      3.98000000	     -1.30559716	     -3.39653562	     -5.57239581	     -1.05596894	      0.94348227	      0.26111145	      4.97839532	     11.98850698	      9.46628249	    -18.23272188	     16.91445362	    -14.60396798	      0.00000000	     31.16038632	     -5.29194867	     -4.35321191	    -56.76984640	     13.50170298	    -11.76541087	      0.00000000	    -10.56429592	      1.81195213	     -2.43198306
      3.98500000	     -1.33607808	     -3.32992814	     -5.88786482	     -1.04925692	      0.94349238	      0.26178691	      4.35927459	     11.90079901	      9.79744051	    -17.90331338	     17.07486053	    -14.61393932	      0.00000000	     31.37248144	     -5.22399241	     -4.39616338	    -55.00897298	     13.67716172	    -11.63657213	      0.00000000	    -10.58224742	      1.67170643	     -2.08248313
      3.99000000	     -1.38277878	     -3.27408244	     -6.19212248	     -1.04250831	      0.94337090	      0.26246274	      3.77411688	     11.82300538	     10.09095303	    -17.60545959	     17.25347421	    -14.62039537	      0.00000000	     31.57256321	     -5.17474275	     -4.43918910	    -53.19705731	     13.86119883	    -11.46445003	      0.00000000	    -10.57264961	      1.54525601	     -1.76905678
      3.99500000	     -1.48779031	     -3.23421575	     -6.43607538	     -1.03574414	      0.94303535	      0.26306929	      3.28094348	     11.76365979	     10.28181767	    -17.35142550	     17.46047308	    -14.61253774	      0.00000000	     31.82397408	     -5.11297382	     -4.38603080	    -51.35542418	     14.06339017	    -11.20486793	      0.00000000	    -10.48588763	      1.44903896	     -1.53525553
      4.00000000	     -1.50731371	     -3.19256937	     -6.79089655	     -1.02898088	      0.94276883	      0.26374873	      2.68752743	     11.69012393	     10.60858387	    -17.10423557	     17.68426793	    -14.59469204	      0.00000000	     31.92562434	     -5.12152288	     -4.51192520	    -49.44399952	     14.22857604	    -10.98281846	      0.00000000	    -10.51267267	      1.34679416	     -1.16005651
      4.00500000	     -1.56555760	     -3.17482500	     -7.08492675	     -1.02220962	      0.94232268	      0.26437963	      2.15639726	     11.64488951	     10.84988317	    -16.88642685	     17.91340456	    -14.59421369	      0.00000000	     32.05824031	     -5.12116832	     -4.52152396	    -47.51309186	     14.40999028	    -10.67058546	      0.00000000	    -10.49524267	      1.27654542	     -0.87046998
      4.01000000	     -1.63535955	     -3.17546205	     -7.36659085	     -1.01545012	      0.94175951	      0.26498894	      1.65568633	     11.61883731	     11.07175746	    -16.70509529	     18.16021472	    -14.57799872	      0.00000000	     32.18307514	     -5.13952508	     -4.50726601	    -45.55496104	     14.58113754	    -10.31917658	      0.00000000	    -10.46373871	      1.22444358	     -0.57598343
      4.01500000	     -1.72569948	     -3.17640803	     -7.63446565	     -1.00871418	      0.94107048	      0.26553072	      1.20340920	     11.59255660	     11.27044511	    -16.57009291	     18.42967740	    -14.56013715	      0.00000000	     32.31166212	     -5.15204190	     -4.44751634	    -43.57632408	     14.74013790	     -9.90060267	      0.00000000	    -10.42503732	      1.19152671	     -0.29744639
      4.02000000	     -1.77324475	     -3.19372813	     -7.94588521	     -1.00190747	      0.94037335	      0.26612497	      0.68696371	     11.57088222	     11.50765113	    -16.42088820	     18.72160325	    -14.51216154	      0.00000000	     32.35844465	     -5.22779260	     -4.51288807	    -41.57049028	     14.88653193	     -9.50523188	      0.00000000	    -10.42371868	      1.17032047	      0.03465989
      4.02500000	     -1.84437978	     -3.22096852	     -8.21561048	     -0.99512998	      0.93954328	      0.26666002	      0.22166841	     11.56369550	     11.70623123	    -16.31597156	     19.02208215	    -14.47669162	      0.00000000	     32.42172120	     -5.29285273	     -4.49464504	    -39.56029883	     15.01614574	     -9.06207537	      0.00000000	    -10.40557738	      1.16744042	      0.31967866
      4.03000000	     -1.94064851	     -3.25526131	     -8.47716446	     -0.98837488	      0.93858538	      0.26719971	     -0.19652996	     11.56940853	     11.88369088	    -16.25043867	     19.34016666	    -14.43834388	      0.00000000	     32.50066282	     -5.36856516	     -4.43232825	    -37.55732722	     15.12401082	     -8.59325831	      0.00000000	    -10.36822482	      1.17013198	      0.57557928
      4.03500000	     -2.00791788	     -3.29828963	     -8.75589961	     -0.98155413	      0.93760985	      0.26769819	     -0.65663340	     11.56723340	     12.08442307	    -16.17982587	     19.67969531	    -14.36083067	      0.00000000	     32.52552002	     -5.47599534	     -4.46401012	    -35.55193144	     15.21681628	     -8.16795845	      0.00000000	    -10.35754445	      1.19297185	      0.88293974
      4.04000000	     -2.10063986	     -3.34469824	     -9.00723755	     -0.97477676	      0.93650983	      0.26819184	     -1.06352919	     11.57794970	     12.26659627	    -16.15616075	     20.02661837	    -14.29683188	      0.00000000	     32.57663498	     -5.57923057	     -4.42363162	    -33.57171764	     15.27638983	     -7.73120964	      0.00000000	    -10.33270532	      1.21670760	      1.13129559
      4.04500000	     -2.18953357	     -3.40597046	     -9.26198373	     -0.96796778	      0.93535042	      0.26866147	     -1.47914625	     11.59559919	     12.44750466	    -16.13382275	     20.38750970	    -14.21051586	      0.00000000	     32.61544470	     -5.70679018	     -4.40697225	    -31.62231063	     15.31411359	     -7.35050352	      0.00000000	    -10.31179637	      1.26377239	      1.39575133
      4.05000000	     -2.27573980	     -3.46788304	     -9.50627034	     -0.96114724	      0.93413242	      0.26910791	     -1.88754416	     11.61010252	     12.63326403	    -16.13723585	     20.75911935	    -14.10714556	      0.00000000	     32.65014765	     -5.83877326	     -4.40267380	    -29.71289271	     15.32140915	     -7.01166454	      0.00000000	    -10.29814530	      1.31207632	      1.64902499
